<svg xmlns="http://www.w3.org/2000/svg" xmlns:xlink="http://www.w3.org/1999/xlink" width="800" height="480" viewBox="0 0 800 480">
  <defs>
    <clipPath id="clip-化工园区">
      <rect width="800" height="480"/>
    </clipPath>
  </defs>
  <g id="化工园区" clip-path="url(#clip-化工园区)">
    <g id="组_294" data-name="组 294">
      <text id="中国化工园区排行榜" transform="translate(0 38)" fill="#6de5ff" font-size="36" font-family="PingFangSC-Medium, PingFang SC" font-weight="500"><tspan x="0" y="0">中国化工园区排行榜</tspan></text>
      <text id="单位产值能耗" transform="translate(0 267)" fill="#6de5ff" font-size="32" font-family="PingFangSC-Medium, PingFang SC" font-weight="500"><tspan x="0" y="0">单位产值能耗</tspan></text>
      <path id="直线-2" d="M789.8,132,815,144l-25.2,12V146H15v-4H789.8Z" transform="translate(-15 26)" fill="#6de5ff"/>
      <ellipse id="椭圆形" cx="40.5" cy="40" rx="40.5" ry="40" transform="translate(52 128.5)" fill="#86f4ff" stroke="#182749" stroke-width="2"/>
      <ellipse id="椭圆形备份" cx="40.5" cy="40" rx="40.5" ry="40" transform="translate(252.5 128.5)" fill="#86f4ff" stroke="#182749" stroke-width="2"/>
      <ellipse id="椭圆形备份-2" cx="41" cy="40" rx="41" ry="40" transform="translate(445.5 128.5)" fill="#86f4ff" stroke="#182749" stroke-width="2"/>
      <text id="_2017" data-name="2017" transform="translate(64.196 180)" fill="#182b51" font-size="28" font-family="SegoeUI-Semibold, Segoe UI" font-weight="600"><tspan x="0" y="0">2017</tspan></text>
      <text id="_2018" data-name="2018" transform="translate(264 180)" fill="#182b51" font-size="28" font-family="SegoeUI-Semibold, Segoe UI" font-weight="600"><tspan x="0" y="0">2018</tspan></text>
      <text id="_2019" data-name="2019" transform="translate(457 180)" fill="#182b51" font-size="28" font-family="SegoeUI-Semibold, Segoe UI" font-weight="600"><tspan x="0" y="0">2019</tspan></text>
      <text id="第8名_20强_" data-name="第8名（20强）" transform="translate(92.1 99)" fill="#fff" font-size="30" font-family="PingFangSC-Medium, PingFang SC" font-weight="500"><tspan x="-81.99" y="0">第8名(20强)</tspan></text>
      <text id="_2.12吨标煤_万元" data-name="2.12吨标煤/万元" transform="translate(0.42 332)" fill="#fff" font-size="28" font-family="PingFangSC-Medium, PingFang SC" font-weight="500"><tspan x="0" y="0">2.12吨标煤/万元</tspan></text>
      <text id="_1.31吨标煤_万元" data-name="1.31吨标煤/万元" transform="translate(151.94 380)" fill="#fff" font-size="28" font-family="PingFangSC-Medium, PingFang SC" font-weight="500"><tspan x="0" y="0">1.31吨标煤/万元</tspan></text>
      <ellipse id="椭圆形备份-3" cx="40.5" cy="40" rx="40.5" ry="40" transform="translate(647.5 128.5)" fill="#86f4ff" stroke="#182749" stroke-width="2"/>
      <text id="第11名_30强_" data-name="第11名（30强）" transform="translate(303.34 99)" fill="#fff" font-size="30" font-family="PingFangSC-Medium, PingFang SC" font-weight="500"><tspan x="-90.99" y="0">第11名(30强)</tspan></text>
      <text id="第7名_30强_" data-name="第7名（30强）" transform="translate(495.476 99)" fill="#fff" font-size="30" font-family="PingFangSC-Medium, PingFang SC" font-weight="500"><tspan x="-81.99" y="0">第7名(30强)</tspan></text>
      <text id="第8名_30强_" data-name="第8名（30强）" transform="translate(692.1 99)" fill="#fff" font-size="30" font-family="PingFangSC-Medium, PingFang SC" font-weight="500"><tspan x="-81.99" y="0">第8名(30强)</tspan></text>
      <path id="路径-13" d="M113.5,351l169.029,38.855,166.735,71.908" transform="translate(-104 9)" fill="none" stroke="#6de5ff" stroke-width="4" fill-rule="evenodd"/>
      <circle id="椭圆形-2" data-name="椭圆形" cx="10" cy="10" r="10" transform="translate(0 349)" fill="#6de5ff"/>
      <circle id="椭圆形备份-4" cx="10" cy="10" r="10" transform="translate(167 390)" fill="#6de5ff"/>
      <circle id="椭圆形备份-5" cx="10" cy="10" r="10" transform="translate(335 460)" fill="#6de5ff"/>
      <text id="单位-产值-能耗-下降-84.4_" data-name="单位-产值-能耗-下降-84.4%" transform="translate(610 302.5)" fill="#6de5ff" font-size="28" font-family="PingFangSC-Medium, PingFang SC" letter-spacing="0.5em" font-weight="500"><tspan x="-46.662" y="0">单位 </tspan><tspan x="-46.662" y="35">产值 </tspan><tspan x="-46.662" y="70">能耗 </tspan><tspan x="-46.662" y="105">下降 </tspan><tspan letter-spacing="0.1em"><tspan x="-48.076" y="140">84.4%</tspan></tspan></text>
      <text id="仅为-同行-业平-均水-平的-13.7_" data-name="仅为-同行-业平-均水-平的-13.7%" transform="translate(752 295.5)" fill="#6de5ff" font-size="28" font-family="PingFangSC-Medium, PingFang SC" letter-spacing="0.5em" font-weight="500"><tspan x="-46.662" y="0">仅为 </tspan><tspan x="-46.662" y="35">同行 </tspan><tspan x="-46.662" y="70">业平 </tspan><tspan x="-46.662" y="105">均水 </tspan><tspan x="-46.662" y="140">平的 </tspan><tspan letter-spacing="0.1em"><tspan x="-48.076" y="175">13.7%</tspan></tspan></text>
      <path id="形状" d="M101.855,0,137,28.956,101.855,58ZM.5,18.042H101.855V39.429H.5Z" transform="translate(703.5 304) rotate(90)" fill="#6de5ff"/>
      <text id="_2020" data-name="2020" transform="translate(657 180)" fill="#182b51" font-size="28" font-family="SegoeUI-Semibold, Segoe UI" font-weight="600"><tspan x="0" y="0">2020</tspan></text>
      <text id="_0.33吨标煤_万元" data-name="0.33吨标煤/万元" transform="translate(315.9 450)" fill="#fff" font-size="28" font-family="PingFangSC-Medium, PingFang SC" font-weight="500"><tspan x="0" y="0">0.33吨标煤/万元</tspan></text>
    </g>
  </g>
</svg>
