<svg xmlns="http://www.w3.org/2000/svg" xmlns:xlink="http://www.w3.org/1999/xlink" width="800" height="480" viewBox="0 0 800 480">
  <defs>
    <clipPath id="clip-扬州玖龙湖医养健康城-2">
      <rect width="800" height="480"/>
    </clipPath>
  </defs>
  <g id="扬州玖龙湖医养健康城-2" clip-path="url(#clip-扬州玖龙湖医养健康城-2)">
    <g id="组_296" data-name="组 296">
      <text id="中国化工园区排行榜" transform="translate(21 38)" fill="#6de5ff" font-size="36" font-family="PingFangSC-Medium, PingFang SC" font-weight="500"><tspan x="0" y="0">扬州市能耗“双控目标”完成情况与其他两市对比</tspan></text>
      <circle id="椭圆_16" data-name="椭圆 16" cx="8.5" cy="8.5" r="8.5" transform="translate(24 160)" fill="#ffd77f"/>
      <path id="多边形_7" data-name="多边形 7" d="M8.5,0,17,15H0Z" transform="translate(24 202)" fill="#604edd"/>
      <rect id="矩形_193" data-name="矩形 193" width="15" height="15" transform="translate(25 120)" fill="#2fbdf8"/>
      <path id="路径_106" data-name="路径 106" d="M5003.5,8198.937s280.474-15.278,278.071-14.994,302.764,78.872,302.764,78.872" transform="translate(-4819.641 -8055)" fill="none" stroke="#ffd77f" stroke-width="2"/>
      <path id="路径_107" data-name="路径 107" d="M5003.5,8240.082l278.568,15.167,302.12-77.684" transform="translate(-4819.642 -8063.023)" fill="none" stroke="#604edd" stroke-width="2"/>
      <path id="路径_108" data-name="路径 108" d="M5003.5,8257.066l278.592-117.545,302.09,161.824" transform="translate(-4819.641 -8055)" fill="none" stroke="#2fbdf8" stroke-width="2"/>
      <circle id="椭圆_11" data-name="椭圆 11" cx="8.5" cy="8.5" r="8.5" transform="translate(176 132)" fill="#ffd77f"/>
      <circle id="椭圆_14" data-name="椭圆 14" cx="8.5" cy="8.5" r="8.5" transform="translate(454 120)" fill="#ffd77f"/>
      <circle id="椭圆_15" data-name="椭圆 15" cx="8.5" cy="8.5" r="8.5" transform="translate(756 198)" fill="#ffd77f"/>
      <path id="多边形_2" data-name="多边形 2" d="M8.5,0,17,15H0Z" transform="translate(176 165)" fill="#604edd"/>
      <path id="多边形_5" data-name="多边形 5" d="M8.5,0,17,15H0Z" transform="translate(454 183)" fill="#604edd"/>
      <path id="多边形_6" data-name="多边形 6" d="M8.5,0,17,15H0Z" transform="translate(756 107)" fill="#604edd"/>
      <rect id="矩形_188" data-name="矩形 188" width="15" height="15" transform="translate(177 195)" fill="#2fbdf8"/>
      <rect id="矩形_191" data-name="矩形 191" width="15" height="15" transform="translate(455 80)" fill="#2fbdf8"/>
      <rect id="矩形_192" data-name="矩形 192" width="15" height="15" transform="translate(757 237)" fill="#2fbdf8"/>
      <text id="_2.12吨标煤_万元" data-name="2.12吨标煤/万元" transform="translate(88 138)" fill="#fff" font-size="28" font-family="PingFangSC-Medium, PingFang SC" font-weight="500"><tspan x="-28" y="0">扬州</tspan></text>
      <text id="_2.12吨标煤_万元-2" data-name="2.12吨标煤/万元" transform="translate(88 179)" fill="#fff" font-size="28" font-family="PingFangSC-Medium, PingFang SC" font-weight="500"><tspan x="-28" y="0">徐州</tspan></text>
      <text id="_2.12吨标煤_万元-3" data-name="2.12吨标煤/万元" transform="translate(96 222)" fill="#fff" font-size="28" font-family="PingFangSC-Medium, PingFang SC" font-weight="500"><tspan x="-42" y="0">连云港</tspan></text>
      <text id="方案一" transform="translate(235 302)" fill="rgba(255,255,255,0.85)" font-size="28" font-family="PingFangSC-Medium, PingFang SC" font-weight="500"><tspan x="-47.6" y="0">2016年</tspan><tspan x="-111.58" y="40">目标降低率（%）</tspan></text>
      <text id="_0.0264" data-name="0.0264" transform="translate(235 385)" fill="#6de5ff" font-size="28" font-family="PingFangSC-Medium, PingFang SC" font-weight="500"><tspan x="-20.496" y="0">3.5</tspan></text>
      <text id="_0.0264-2" data-name="0.0264" transform="translate(235 428)" fill="#6de5ff" font-size="28" font-family="PingFangSC-Medium, PingFang SC" font-weight="500"><tspan x="-20.496" y="0">2.7</tspan></text>
      <text id="_0.0264-3" data-name="0.0264" transform="translate(437 385)" fill="#6de5ff" font-size="28" font-family="PingFangSC-Medium, PingFang SC" font-weight="500"><tspan x="-28.896" y="0">3.52</tspan></text>
      <text id="_0.0264-4" data-name="0.0264" transform="translate(437 428)" fill="#6de5ff" font-size="28" font-family="PingFangSC-Medium, PingFang SC" font-weight="500"><tspan x="-28.896" y="0">7.15</tspan></text>
      <text id="_0.0264-5" data-name="0.0264" transform="translate(656 385)" fill="#6de5ff" font-size="28" font-family="PingFangSC-Medium, PingFang SC" font-weight="500"><tspan x="-28.896" y="0">5.56</tspan></text>
      <text id="_0.0264-6" data-name="0.0264" transform="translate(656 428)" fill="#6de5ff" font-size="28" font-family="PingFangSC-Medium, PingFang SC" font-weight="500"><tspan x="-28.896" y="0">0.13</tspan></text>
      <text id="方案二" transform="translate(444 304)" fill="rgba(255,255,255,0.85)" font-size="28" font-family="PingFangSC-Medium, PingFang SC" font-weight="500"><tspan x="-47.6" y="0">2016年</tspan><tspan x="-70" y="40">实际降低率</tspan></text>
      <text id="方案三" transform="translate(665 301)" fill="rgba(255,255,255,0.85)" font-size="28" font-family="PingFangSC-Medium, PingFang SC" font-weight="500"><tspan x="-84" y="0">能源消费总量</tspan><tspan x="-97.58" y="40">同比增长（%）</tspan></text>
      <text id="微粉尘_kg_kwh_" data-name="微粉尘（kg/kwh）" transform="translate(63 385)" fill="rgba(255,255,255,0.85)" font-size="28" font-family="PingFangSC-Medium, PingFang SC" font-weight="500"><tspan x="-28" y="0">扬州</tspan></text>
      <text id="CO2_kg_kwh_" data-name="CO2（kg/kwh）" transform="translate(63 428)" fill="rgba(255,255,255,0.85)" font-size="28" font-family="PingFangSC-Medium, PingFang SC" font-weight="500"><tspan x="-28" y="0">徐州</tspan></text>
      <text id="SO2_kg_kwh_" data-name="SO2（kg/kwh）" transform="translate(63 470)" fill="rgba(255,255,255,0.85)" font-size="28" font-family="PingFangSC-Medium, PingFang SC" font-weight="500"><tspan x="-42" y="0">连云港</tspan></text>
      <text id="_0.0264-7" data-name="0.0264" transform="translate(235 470)" fill="#6de5ff" font-size="28" font-family="PingFangSC-Medium, PingFang SC" font-weight="500"><tspan x="-20.496" y="0">3.9</tspan></text>
      <text id="_0.0264-8" data-name="0.0264" transform="translate(439 470)" fill="#6de5ff" font-size="28" font-family="PingFangSC-Medium, PingFang SC" font-weight="500"><tspan x="-20.496" y="0">5.9</tspan></text>
      <text id="_0.0264-9" data-name="0.0264" transform="translate(656 470)" fill="#6de5ff" font-size="28" font-family="PingFangSC-Medium, PingFang SC" font-weight="500"><tspan x="-28.896" y="0">1.87</tspan></text>
      <path id="直线" d="M0,.5H800" transform="translate(0 354.534)" fill="none" stroke="#6de5ff" stroke-linecap="round" stroke-miterlimit="10" stroke-width="1" stroke-dasharray="2" opacity="0.2"/>
      <path id="直线-2" data-name="直线" d="M0,.5H800" transform="translate(0 396.534)" fill="none" stroke="#6de5ff" stroke-linecap="round" stroke-miterlimit="10" stroke-width="1" stroke-dasharray="2" opacity="0.2"/>
      <path id="直线-3" data-name="直线" d="M0,.5H800" transform="translate(0 438.534)" fill="none" stroke="#6de5ff" stroke-linecap="round" stroke-miterlimit="10" stroke-width="1" stroke-dasharray="2" opacity="0.2"/>
    </g>
  </g>
</svg>
